<svg version="1.1" id="Layer_1" xmlns="http://www.w3.org/2000/svg" xmlns:xlink="http://www.w3.org/1999/xlink" x="0px" y="0px"
	 width="100%" viewBox="0 0 1024 1024" enable-background="new 0 0 1024 1024" xml:space="preserve">
<path fill="currentColor" opacity="1.000000" stroke="none" 
	d="
M441.000061,255.724472 
	C485.161896,255.727158 528.827698,255.374817 572.484070,255.866287 
	C598.244446,256.156281 623.529053,260.330475 647.699280,269.756500 
	C661.755737,275.238342 674.600891,282.911621 686.714966,291.877045 
	C689.399475,293.863800 689.944824,295.407379 687.784363,298.337494 
	C681.756836,306.512421 676.519409,315.303894 670.126038,323.165619 
	C663.722717,331.039490 661.858398,339.940521 661.271973,349.567719 
	C659.426941,379.856506 661.295898,410.151093 661.011108,440.441345 
	C660.910828,451.105865 660.893372,461.771576 660.917053,472.436584 
	C660.932251,479.262726 662.134766,480.128174 668.940674,479.394958 
	C682.146790,477.972107 695.091309,479.448853 706.723511,485.975647 
	C724.606201,496.009613 731.678955,512.385010 731.796997,532.296021 
	C731.820557,536.262634 729.131714,536.223450 726.315552,536.221130 
	C706.984375,536.205322 687.653198,536.223755 668.322021,536.224060 
	C660.970886,536.224182 661.019409,536.215576 661.043152,543.781189 
	C661.110535,565.278076 661.614441,586.787659 661.048950,608.268616 
	C660.402771,632.816772 657.437866,657.106567 647.321350,679.882751 
	C631.799316,714.828674 605.615112,738.770813 570.506104,753.160583 
	C549.947998,761.586426 528.330750,765.840576 506.215240,765.933716 
	C431.892120,766.246704 357.566772,766.007996 283.242310,766.065430 
	C279.275330,766.068481 277.528625,764.949158 277.622864,760.669739 
	C277.854034,750.176025 277.893127,739.668579 277.610931,729.177429 
	C277.488007,724.608276 279.302063,723.594238 283.487671,723.609558 
	C318.483307,723.737793 353.479675,723.688782 388.475800,723.685425 
	C420.138977,723.682373 451.802673,723.778992 483.465088,723.618591 
	C501.464935,723.527405 519.431030,722.613342 536.785400,717.155457 
	C575.393372,705.013245 598.793457,679.083496 606.606506,639.351074 
	C609.051575,626.916809 609.707336,614.265747 609.697937,601.592957 
	C609.683594,582.261719 609.585449,562.929626 609.756287,543.599976 
	C609.798218,538.849487 608.241638,536.978149 603.365112,537.305054 
	C583.934570,538.607483 564.494934,539.793091 545.048462,540.832947 
	C526.102478,541.846008 507.220856,543.609436 488.329315,545.283081 
	C476.230011,546.354980 464.133728,547.491394 452.017181,548.322632 
	C447.795013,548.612244 447.900452,551.722046 447.486420,554.294739 
	C445.656372,565.665833 442.848022,576.773315 439.233398,587.699280 
	C425.784851,628.350403 402.525513,661.555176 365.212402,683.645386 
	C340.864532,698.059937 314.402771,704.960144 285.920776,703.393005 
	C282.585327,703.209534 281.619659,701.845459 281.661926,698.796143 
	C281.758881,691.798340 281.861633,684.791504 281.601685,677.801758 
	C281.473297,674.349365 282.694336,672.808777 285.982086,671.848022 
	C300.566895,667.585876 314.640442,662.145508 327.716797,654.182129 
	C364.082977,632.035583 385.517334,599.433655 395.384827,558.580750 
	C396.309814,554.751160 395.291016,552.868408 390.994934,553.240295 
	C376.738159,554.473999 362.488525,555.933228 348.203308,556.662354 
	C327.113312,557.738770 306.034088,560.879150 284.876465,558.271301 
	C254.541840,554.532288 239.090317,529.717896 237.600250,509.093719 
	C237.307037,505.035400 238.749832,504.004913 242.632553,504.005859 
	C271.128235,504.012970 299.626678,504.015472 328.118927,503.628479 
	C351.597809,503.309540 375.059845,502.270569 398.508087,500.912201 
	C403.231812,500.638580 404.558746,498.907257 404.901947,494.314056 
	C408.222015,449.878387 406.097443,405.379059 406.722595,360.915283 
	C406.769440,357.583008 406.857727,354.242859 406.690063,350.918304 
	C406.510254,347.353729 407.804413,345.824982 411.569550,345.837036 
	C448.398346,345.955017 485.232941,345.588257 522.054382,346.134766 
	C541.662659,346.425781 561.332703,347.430023 580.294495,353.637665 
	C584.116089,354.888794 585.485962,356.542572 585.452454,360.627289 
	C585.286865,380.787811 585.512512,400.951324 585.425415,421.113068 
	C585.415955,423.314270 586.709595,426.639282 583.194397,427.466949 
	C579.401550,428.360077 575.577759,429.480621 572.205078,425.570923 
	C566.114380,418.510468 559.641724,411.788971 552.350525,405.892120 
	C538.912720,395.024139 523.627869,389.297394 506.341797,389.025635 
	C491.695618,388.795441 477.048523,388.604431 462.401154,388.479736 
	C456.245941,388.427338 455.349243,389.426697 455.343903,395.828308 
	C455.323700,419.992035 455.404785,444.156219 455.274536,468.319275 
	C455.232391,476.140259 454.814484,483.969360 454.265625,491.773468 
	C453.960907,496.106079 455.778015,497.370300 459.787781,497.106659 
	C474.568451,496.134766 489.379150,495.555389 504.138916,494.344818 
	C529.004395,492.305420 553.842834,489.931580 578.685730,487.624084 
	C587.294006,486.824524 595.871704,485.689789 604.483521,484.939178 
	C608.080261,484.625702 609.459839,482.740723 609.597412,479.477234 
	C609.674622,477.646759 609.683228,475.812408 609.683167,473.979797 
	C609.681946,435.150726 609.706421,396.321625 609.629211,357.492706 
	C609.619629,352.678284 609.061768,347.865051 608.760742,343.051117 
	C607.988953,330.708435 609.419983,318.779877 615.613647,307.866150 
	C614.209167,305.329071 611.746033,305.036377 609.605469,304.404877 
	C594.524414,299.955536 579.148621,297.594788 563.386658,297.235260 
	C489.075806,295.540222 414.755463,296.896667 340.443024,296.260864 
	C335.294189,296.216797 334.079681,297.833466 334.094818,302.789520 
	C334.271118,360.449219 334.224945,418.109589 334.230194,475.769806 
	C334.230896,483.337280 334.212158,483.400665 326.506378,483.472565 
	C315.844177,483.572083 305.177826,483.426270 294.519806,483.671600 
	C290.304871,483.768646 289.595154,481.775421 289.608551,478.187714 
	C289.706909,451.857635 289.680237,425.527069 289.682312,399.196655 
	C289.685883,353.701660 289.680695,308.206696 289.682007,262.711700 
	C289.682220,255.755463 289.689301,255.755936 296.529938,255.754501 
	C344.519958,255.744492 392.510010,255.734299 441.000061,255.724472 
z"/>
<path fill="currentColor" opacity="1.000000" stroke="none" 
	d="
M784.696655,585.569336 
	C773.915588,618.133362 757.526611,647.133057 735.340637,672.719543 
	C704.737000,708.013855 668.005981,734.535706 623.284241,749.231506 
	C620.901367,750.014526 618.721680,751.832764 614.369568,751.220520 
	C622.389343,746.222656 628.478149,740.954285 634.309021,735.390503 
	C653.184387,717.379578 667.477966,696.378601 675.716675,671.486206 
	C676.742920,668.385437 678.364624,666.037415 680.851929,663.843567 
	C702.238586,644.980957 718.857056,622.542175 731.398743,596.908386 
	C750.142273,558.598389 755.470093,518.066650 750.375732,476.292480 
	C744.354553,426.917999 722.640320,384.940735 686.452393,350.704041 
	C682.596619,347.056152 682.734314,344.790497 685.776123,340.902649 
	C692.648254,332.119080 699.034973,322.956329 705.655640,313.974701 
	C706.615540,312.672455 707.386353,311.118835 708.991821,310.470154 
	C778.744507,368.689209 819.267944,474.967224 784.696655,585.569336 
z"/>
</svg>
